<svg width="22" height="22" viewBox="0 0 22 22" fill="none" xmlns="http://www.w3.org/2000/svg">
<path d="M10.9726 12.1089C13.7726 12.1089 16.0182 9.83566 16.0182 7.06338C16.0182 4.2911 13.7726 1.99011 10.9726 1.99011C8.17262 1.99011 5.92707 4.26338 5.92707 7.03566C5.92707 9.80793 8.17262 12.1089 10.9726 12.1089ZM10.9726 3.32081C13.0241 3.32081 14.6875 4.98417 14.6875 7.03566C14.6875 9.08714 13.0241 10.7505 10.9726 10.7505C8.92113 10.7505 7.25776 9.11486 7.25776 7.06338C7.25776 5.01189 8.92113 3.32081 10.9726 3.32081ZM2.21222 20.0099H19.7885C20.1488 20.0099 20.4538 19.705 20.4538 19.3446C20.4538 15.8515 17.5984 12.9961 14.1053 12.9961H7.89539C4.40232 12.9961 1.54688 15.8515 1.54688 19.3446C1.54688 19.705 1.85183 20.0099 2.21222 20.0099ZM7.89539 14.3267H14.1053C16.6558 14.3267 18.735 16.2119 19.0677 18.6792H2.93301C3.26569 16.2119 5.34489 14.3267 7.89539 14.3267Z" fill="#FDB813"/>
</svg>
